<?xml version="1.0" encoding="utf-8"?>
<!DOCTYPE svg PUBLIC "-//W3C//DTD SVG 1.1//EN" "http://www.w3.org/Graphics/SVG/1.1/DTD/svg11.dtd">
<svg version="1.1" xmlns="http://www.w3.org/2000/svg" x="0" y="0" width="937" height="873" viewBox="0 0 937 873">
<style type="text/css">
	.st0{fill:#fff;stroke:#000;stroke-width:20;}
	.st1{fill:#fff;stroke:#000;}
</style>
<polygon class="st0" points="251.9,789.4 43.2,428 251.9,66.5 669.2,66.5 877.9,428 669.2,789.4 "/>
<polygon points="341.9,633.4 223.3,428 341.9,222.5 579.2,222.5 697.8,428 579.2,633.4 "/>
<g>
	<path class="st1" d="M460.6,403c-13.8,0-25,11.2-25,25c0,13.8,11.2,25,25,25s25-11.2,25-25C485.6,414.2,474.3,403,460.6,403z"/>
	<path class="st1" d="M681.3,438.2v-15.5l-133.5,1.9c-0.4-11.7-3.2-22.8-7.8-32.9l57.3-31l-7.8-13.4l-55.2,34
		c-6.1-9.6-14-18-23.2-24.5l68.6-114.9l-13.4-7.8l-65.1,116.5c-9.8-5.2-20.8-8.6-32.4-9.7l1.8-65.1h-15.5l1.8,64.8
		c-11.7,0.5-22.8,3.2-32.9,7.8L359,231.7l-13.4,7.8L414,354.1c-9.6,6.1-18,14-24.6,23.2L334,343.1l-7.8,13.4l57,30.8
		c-5.2,9.8-8.5,20.8-9.6,32.4l-133.8-1.9v15.5l133.5-1.9c0.4,11.7,3.2,22.8,7.8,32.9l-57.3,31l7.8,13.4l55.2-34
		c6.1,9.6,14,18,23.2,24.5l-68.6,114.9l13.4,7.8l65.1-116.5c9.8,5.2,20.8,8.6,32.4,9.7l-1.8,65.1h15.5l-1.8-64.8
		c11.7-0.5,22.8-3.2,32.9-7.8l65.2,116.8l13.4-7.8l-68.4-114.6c9.6-6.1,18-14,24.6-23.2l55.5,34.2l7.8-13.4l-57-30.8
		c5.2-9.8,8.5-20.8,9.6-32.4L681.3,438.2z M460.6,463c-19.3,0-35-15.7-35-35c0-19.3,15.7-35,35-35s35,15.7,35,35
		C495.6,447.3,479.9,463,460.6,463z"/>
</g>
<g>
	<path d="M510.1,102.3v96.3H467v-40.4H454v40.4h-43.2v-96.3H454v34.4H467v-34.4H510.1z"/>
</g>
<g>
	<path d="M226.6,240l-20,34.7l-6.2-3.6c-2.9-1.7-5-2.3-6.3-1.9c-1.3,0.4-2.6,1.7-3.7,3.8c-1.3,2.3-1.7,4.3-1.4,6
		c0.4,1.8,1.7,3.3,3.8,4.5c2.8,1.6,5.3,2.2,7.4,1.7c2.1-0.4,5.9-3,11.2-7.6c15.3-13.3,26.1-21.1,32.3-23.3
		c6.2-2.2,13.3-0.9,21.5,3.8c5.9,3.4,9.6,7.2,11.1,11.2c1.4,4,1.1,10-0.9,18c-2.1,8-5.7,16.5-11,25.6c-5.8,10-11.8,17.9-18.1,23.7
		c-6.3,5.8-11.8,8.8-16.4,9.1c-4.7,0.2-10.1-1.5-16.4-5.1l-5.5-3.2l20-34.7l10.1,5.9c3.1,1.8,5.4,2.5,6.9,2c1.5-0.5,2.9-1.9,4.3-4.4
		s1.9-4.7,1.5-6.5c-0.4-1.9-1.8-3.4-4-4.7c-4.9-2.8-8.8-3.5-11.6-2.1c-2.9,1.5-8.8,5.9-17.7,13.1c-8.9,7.2-15.1,11.9-18.4,14
		c-3.4,2.1-7,3.3-11,3.6c-4,0.3-8.2-0.8-12.6-3.3c-6.4-3.7-10.2-7.8-11.6-12.3c-1.3-4.5-1-10.4,0.9-17.6c2-7.2,5.5-15.3,10.6-24.2
		c5.6-9.7,11.3-17.5,17.1-23.2c5.8-5.8,10.7-9,14.7-9.6c4-0.6,9.4,1,16,4.8L226.6,240z"/>
</g>
<g>
	<path d="M163.5,564.9l71-69.5l22.1,38.2l-13.8,10.7l7.7,13.4l16.3-6.4l22.3,38.7L194.7,619L163.5,564.9z M228.6,553.8
		c-8.4,7.3-18.9,16-31.7,25.9c18.2-5.4,31.2-9.8,39.2-13L228.6,553.8z"/>
</g>
<g>
	<path d="M425.5,644.5h72v19.3h-28.8V682h27v18.3h-27v21.2h31.7v19.3h-74.9V644.5z"/>
</g>
<g>
	<path d="M727.7,616.8L632,590l22.1-38.2l16.1,6.6l7.7-13.4l-13.7-10.9l22.3-38.7l72.4,67.2L727.7,616.8z M685.5,566
		c10.5,3.6,23.3,8.4,38.3,14.5c-13.8-13-24.1-22.2-30.9-27.4L685.5,566z"/>
</g>
<g>
	<path d="M718.7,223.6l15.3,26.5c10.2,17.6,16.7,29.8,19.5,36.5c2.8,6.7,3.7,13,2.8,18.8c-1,5.8-5,10.8-12.1,14.9
		c-6.5,3.7-11.7,4.9-15.5,3.4c-3.8-1.5-8.3-6.2-13.5-14.1c3.2,8,4.7,13.8,4.3,17.4c-0.3,3.6-1,6.1-2.2,7.6
		c-1.1,1.5-5.1,4.2-11.8,8.1l-22,12.7l-20-34.7l27.7-16c4.5-2.6,6.9-4.8,7.2-6.6c0.4-1.8-0.9-5.3-3.9-10.5l-37.6,21.7l-21.6-37.4
		L718.7,223.6z M726,269.2l-18.5,10.7c2.4,4.2,4.5,7,6.1,8.3c1.6,1.3,4.3,0.9,8-1.2l4.6-2.6c2.6-1.5,3.9-3.3,3.8-5.4
		C729.8,276.8,728.5,273.5,726,269.2z"/>
</g>
<g>
	<path d="M782.8,707.4c12.2,0,22.2,4,30,12.1s11.8,17.6,11.8,28.6c0,11.2-4,20.8-12,28.8c-8,8-17.6,12-28.8,12
		c-11.3,0-20.9-4-28.8-11.9c-7.9-8-11.9-17.6-11.9-28.8c0-7.9,2.1-15.2,6.3-21.8c4.2-6.6,9.5-11.4,15.8-14.5
		C771.5,708.9,777.4,707.4,782.8,707.4z M784.8,715.3c-10,0-18.1,3.3-24.3,9.9c-6.2,6.6-9.3,14.2-9.3,22.9c0,9,3.2,16.7,9.6,23.2
		c6.4,6.4,14.1,9.6,23.2,9.6c9,0,16.7-3.2,23.1-9.6c6.4-6.4,9.6-14.1,9.6-23.2c0-6.2-1.6-11.9-4.8-17.2c-3.2-5.2-7.4-9.2-12.5-11.8
		C794.3,716.6,789.5,715.3,784.8,715.3z M765.9,769.9v-43.3h20.5c5.1,0,8.8,1.2,11.1,3.5c2.3,2.4,3.5,5.3,3.5,8.7c0,3.3-1,6-2.9,8
		c-1.9,2-4.9,3.4-8.8,4.1c1.8,0.7,3.2,1.6,4.2,2.7c1,1.2,2.7,3.6,5,7.5l5.1,8.7h-10.8l-3.6-7c-2.2-4.2-4.1-7-5.7-8.5
		c-1.7-1.5-3.8-2.3-6.5-2.3h-2.3v17.7H765.9z M774.7,745.4h7.1c3.6,0,6.1-0.5,7.6-1.4c1.5-0.9,2.3-2.5,2.3-4.6
		c0-1.9-0.7-3.4-2.2-4.3c-1.5-1-3.7-1.4-6.8-1.4h-8V745.4z"/>
</g>
</svg>
