<?xml version="1.0" encoding="utf-8"?>
<!-- Generator: Adobe Illustrator 17.1.0, SVG Export Plug-In . SVG Version: 6.00 Build 0)  -->
<!DOCTYPE svg PUBLIC "-//W3C//DTD SVG 1.1//EN" "http://www.w3.org/Graphics/SVG/1.1/DTD/svg11.dtd">
<svg version="1.1" id="Capa_1" xmlns="http://www.w3.org/2000/svg" xmlns:xlink="http://www.w3.org/1999/xlink" x="0px" y="0px"
	 viewBox="0 0 566.9 566.9" enable-background="new 0 0 566.9 566.9" xml:space="preserve">
<g>
	<g>
		<path fill="#006837" d="M55.5,453.2v75.3H38.4v-75.3H55.5z"/>
		<path fill="#006837" d="M70.8,511c4.6,2.3,11.6,4.7,18.9,4.7c7.8,0,12-3.2,12-8.2c0-4.7-3.6-7.4-12.6-10.6
			c-12.5-4.4-20.7-11.3-20.7-22.2c0-12.8,10.7-22.7,28.5-22.7c8.5,0,14.7,1.8,19.2,3.8l-3.8,13.7c-3-1.5-8.4-3.6-15.8-3.6
			c-7.4,0-10.9,3.4-10.9,7.3c0,4.8,4.2,6.9,14,10.6c13.3,4.9,19.6,11.8,19.6,22.5c0,12.6-9.7,23.4-30.4,23.4
			c-8.6,0-17.1-2.2-21.3-4.6L70.8,511z"/>
		<path fill="#006837" d="M199.5,490.1c0,24.7-15,39.7-37,39.7c-22.3,0-35.4-16.9-35.4-38.3c0-22.6,14.4-39.4,36.6-39.4
			C186.9,452,199.5,469.3,199.5,490.1z M145.1,491.1c0,14.7,6.9,25.1,18.3,25.1c11.5,0,18.1-10.9,18.1-25.6
			c0-13.5-6.5-25.1-18.2-25.1C151.8,465.5,145.1,476.5,145.1,491.1z"/>
		<path fill="#006837" d="M252.2,471H252l-13.9,6.6l-2.8-12.7l19.2-8.9h14.1v72.6h-16.4V471z"/>
		<path fill="#006837" d="M322.6,528.5v-17.3h-32.2v-11.1l27.5-44.2h20.8v42.6h8.7v12.7h-8.7v17.3H322.6z M322.6,498.5v-16.1
			c0-4.4,0.2-8.8,0.6-13.5h-0.4c-2.3,4.7-4.2,8.9-6.7,13.5l-9.7,15.9v0.2H322.6z"/>
		<path fill="#006837" d="M408.2,491.9c0,22.5-9,37.9-27.6,37.9c-18.8,0-27-16.9-27.1-37.4c0-21,8.9-37.7,27.7-37.7
			C400.6,454.7,408.2,472,408.2,491.9z M370.6,492.3c-0.1,16.6,3.9,24.6,10.5,24.6s10.2-8.3,10.2-24.8c0-16.1-3.5-24.6-10.3-24.6
			C374.7,467.5,370.4,475.5,370.6,492.3z"/>
		<path fill="#006837" d="M470.2,491.9c0,22.5-9,37.9-27.6,37.9c-18.8,0-27-16.9-27.1-37.4c0-21,8.9-37.7,27.7-37.7
			C462.6,454.7,470.2,472,470.2,491.9z M432.6,492.3c-0.1,16.6,3.9,24.6,10.5,24.6s10.2-8.3,10.2-24.8c0-16.1-3.5-24.6-10.3-24.6
			C436.7,467.5,432.5,475.5,432.6,492.3z"/>
		<path fill="#006837" d="M532.2,491.9c0,22.5-9,37.9-27.6,37.9c-18.8,0-27-16.9-27.1-37.4c0-21,8.9-37.7,27.7-37.7
			C524.6,454.7,532.2,472,532.2,491.9z M494.6,492.3c-0.1,16.6,3.9,24.6,10.5,24.6s10.2-8.3,10.2-24.8c0-16.1-3.5-24.6-10.3-24.6
			C498.7,467.5,494.5,475.5,494.6,492.3z"/>
	</g>
	<g>
		<path fill="#006837" d="M148,83.9l-5.4-10.7c-2.2-4.1-3.6-7.2-5.3-10.6h-0.2c-1.2,3.4-2.7,6.5-4.6,10.6l-4.9,10.7h-15.3L129.6,54
			l-16.5-29.2h15.4l5.2,10.8c1.8,3.6,3.1,6.5,4.5,9.8h0.2c1.4-3.8,2.5-6.4,4-9.8l5-10.8h15.3l-16.7,28.9l17.6,30.3H148z"/>
		<path fill="#006837" d="M205.9,58.9h-21.8v14h24.3v11h-37.7V24.8h36.5v11h-23.1V48h21.8V58.9z"/>
		<path fill="#006837" d="M218,70.2c3.6,1.8,9.1,3.7,14.8,3.7c6.1,0,9.4-2.5,9.4-6.4c0-3.7-2.8-5.8-9.9-8.3
			c-9.8-3.4-16.2-8.9-16.2-17.5c0-10.1,8.4-17.8,22.4-17.8c6.7,0,11.6,1.4,15.1,3l-3,10.8c-2.4-1.1-6.6-2.8-12.4-2.8
			c-5.8,0-8.6,2.6-8.6,5.7c0,3.8,3.3,5.4,11,8.3c10.4,3.9,15.4,9.3,15.4,17.6c0,9.9-7.6,18.3-23.9,18.3c-6.8,0-13.4-1.8-16.8-3.6
			L218,70.2z"/>
		<path fill="#006837" d="M276.4,36h-15.9V24.8H306V36h-16.2v47.9h-13.4V36z"/>
		<path fill="#006837" d="M326.5,24.8v59.2h-13.4V24.8H326.5z"/>
		<path fill="#006837" d="M392.3,53.7c0,19.4-11.8,31.2-29.1,31.2c-17.6,0-27.8-13.3-27.8-30.1c0-17.7,11.3-31,28.8-31
			C382.4,23.8,392.3,37.4,392.3,53.7z M349.5,54.5c0,11.6,5.4,19.8,14.4,19.8c9,0,14.2-8.6,14.2-20.1c0-10.6-5.1-19.8-14.3-19.8
			C354.8,34.4,349.5,43,349.5,54.5z M379.1,10.7l-10.7,10.8h-10.7l7.4-10.8H379.1z"/>
		<path fill="#006837" d="M401.1,83.9V24.8h15.6L429,46.5c3.5,6.2,7,13.6,9.7,20.3h0.3c-0.9-7.8-1.1-15.8-1.1-24.7V24.8H450v59.2
			h-14l-12.6-22.8c-3.5-6.3-7.4-14-10.3-20.9l-0.3,0.1c0.4,7.8,0.5,16.2,0.5,25.8v17.8H401.1z"/>
		<path fill="#006837" d="M72.2,174.1L68,189.3H54.2l18.1-59.2h17.6l18.3,59.2H93.8l-4.6-15.2H72.2z M87.3,164.1l-3.7-12.6
			c-1.1-3.5-2.1-7.9-3-11.4h-0.2c-0.9,3.5-1.8,8-2.7,11.4l-3.5,12.6H87.3z"/>
		<path fill="#006837" d="M166.1,166.6c-0.3-7.1-0.5-15.7-0.5-24.3h-0.3c-1.8,7.5-4.3,16-6.6,22.9l-7.2,23.1h-10.4l-6.3-22.9
			c-1.9-6.9-4-15.4-5.4-23.1h-0.2c-0.4,8-0.6,17.1-1.1,24.5l-1.1,22.5h-12.4l3.8-59.2h17.8l5.8,19.8c1.8,6.8,3.7,14.2,5,21.2h0.3
			c1.7-6.8,3.7-14.7,5.6-21.2l6.3-19.7h17.5l3.2,59.2H167L166.1,166.6z"/>
		<path fill="#006837" d="M190.3,130.9c3.5-0.7,10.6-1.2,17.3-1.2c8.2,0,13.2,0.8,17.5,3.3c4.1,2.2,7.1,6.2,7.1,11.6
			c0,5.3-3.1,10.2-9.7,12.6v0.2c6.8,1.8,11.8,6.9,11.8,14.6c0,5.4-2.5,9.6-6.1,12.6c-4.3,3.4-11.5,5.4-23.3,5.4
			c-6.6,0-11.5-0.4-14.5-0.9V130.9z M203.6,153.6h4.4c7,0,10.8-2.9,10.8-7.3c0-4.5-3.4-6.8-9.5-6.8c-2.9,0-4.6,0.2-5.7,0.4V153.6z
			 M203.6,179.8c1.3,0.2,2.9,0.2,5.2,0.2c6.1,0,11.4-2.3,11.4-8.5c0-6-5.4-8.3-12-8.3h-4.6V179.8z"/>
		<path fill="#006837" d="M256.8,130.1v59.2h-13.4v-59.2H256.8z"/>
		<path fill="#006837" d="M303.6,164.3h-21.8v14h24.3v11h-37.7v-59.2h36.5v11h-23.1v12.3h21.8V164.3z"/>
		<path fill="#006837" d="M315.2,189.3v-59.2h15.6l12.3,21.7c3.5,6.2,7,13.6,9.7,20.3h0.3c-0.9-7.8-1.1-15.8-1.1-24.7v-17.3h12.3
			v59.2h-14l-12.6-22.8c-3.5-6.3-7.4-14-10.3-20.9l-0.3,0.1c0.4,7.8,0.5,16.2,0.5,25.8v17.8H315.2z"/>
		<path fill="#006837" d="M387.2,141.4h-15.9v-11.2h45.5v11.2h-16.2v47.9h-13.4V141.4z"/>
		<path fill="#006837" d="M431.4,174.1l-4.2,15.2h-13.9l18.1-59.2h17.6l18.3,59.2h-14.4l-4.6-15.2H431.4z M446.4,164.1l-3.7-12.6
			c-1.1-3.5-2.1-7.9-3-11.4h-0.2c-0.9,3.5-1.8,8-2.7,11.4l-3.5,12.6H446.4z"/>
		<path fill="#006837" d="M475.2,130.1h13.4v47.9h23.5v11.2h-37V130.1z"/>
	</g>
	<g>
		<path opacity="0.1" fill="#006837" d="M211.9,423.6H79c-6.7,0-12.1-5.4-12.1-12.1v-95.9h155v98C222,419.1,217.5,423.6,211.9,423.6
			z"/>
		<path opacity="0.1" fill="#006837" d="M54.1,301.8l84.6-84.3c3.2-3.2,8.3-3.2,11.4,0l84.6,84.3c5.1,5.1,1.5,13.8-5.7,13.8H59.9
			C52.6,315.6,49,306.9,54.1,301.8z"/>
	</g>
	<g>
		<g>
			<line fill="none" stroke="#006837" stroke-width="4" stroke-miterlimit="10" x1="284" y1="274.6" x2="284" y2="243.3"/>
			<line stroke="#006837" stroke-width="4" stroke-miterlimit="10" x1="313.3" y1="245.3" x2="282" y2="245.3"/>
		</g>
		<g>
			<line fill="none" stroke="#006837" stroke-width="4" stroke-miterlimit="10" x1="313.3" y1="428.6" x2="282" y2="428.6"/>
			<line stroke="#006837" stroke-width="4" stroke-miterlimit="10" x1="284" y1="399.3" x2="284" y2="430.6"/>
		</g>
	</g>
	<g>
		<g>
			<line fill="none" stroke="#006837" stroke-width="4" stroke-miterlimit="10" x1="501.3" y1="399.3" x2="501.3" y2="430.6"/>
			<line stroke="#006837" stroke-width="4" stroke-miterlimit="10" x1="472" y1="428.6" x2="503.3" y2="428.6"/>
		</g>
		<g>
			<line fill="none" stroke="#006837" stroke-width="4" stroke-miterlimit="10" x1="472" y1="245.3" x2="503.3" y2="245.3"/>
			<line stroke="#006837" stroke-width="4" stroke-miterlimit="10" x1="501.3" y1="274.6" x2="501.3" y2="243.3"/>
		</g>
	</g>
</g>
<path opacity="0.62" fill="none" stroke="#006837" stroke-width="4.026" stroke-miterlimit="10" d="M550.5,545.6
	c0,6.7-5.4,12.2-12,12.2h-510c-6.6,0-12-5.4-12-12.2V21.4c0-6.7,5.4-12.2,12-12.2h510c6.6,0,12,5.4,12,12.2V545.6z"/>
</svg>
