<svg xmlns="http://www.w3.org/2000/svg" viewBox="0 0 849.063 228.263" width="849.063" height="228.263">
  <path d="M 99.933 183.32 L 129.386 95.131 L 129.386 183.32 L 173.224 183.32 L 173.224 42.904 L 113.975 42.904 L 85.549 113.112 L 56.952 42.904 L -2.297 42.904 L -2.297 183.32 L 41.712 183.32 L 41.712 95.131 L 71.336 183.32 L 99.933 183.32 Z" fill="#fee701"/>
  <path d="M 571.356 128.866 C 585.055 127.667 598.754 118.42 598.754 103.009 L 598.754 71.501 L 598.754 68.418 C 597.213 52.664 585.398 44.102 571.185 42.904 L 458.338 42.904 L 458.338 183.32 L 502.175 183.32 L 502.175 128.866 L 519.813 128.866 L 548.239 183.32 L 598.583 183.32 L 564.678 128.866 L 571.356 128.866 Z M 559.198 92.392 C 559.198 95.474 558.513 98.043 553.033 98.043 L 502.346 98.043 L 502.346 70.473 L 553.205 70.473 C 559.369 70.473 559.198 74.583 559.198 77.151 L 559.198 92.392 Z" fill="#fee701"/>
  <path d="M 304.907 70.644 L 304.907 42.904 L 190.861 42.904 L 190.861 183.32 L 306.448 183.32 L 306.448 155.751 L 234.87 155.751 L 234.87 125.612 L 304.907 125.612 L 304.907 98.043 L 234.87 98.043 L 234.87 70.644 L 304.907 70.644 Z" fill="#fee701"/>
  <path d="M 359.704 70.644 L 318.092 70.644 L 318.092 42.904 L 445.152 42.904 L 445.152 70.644 L 403.541 70.644 L 403.541 183.32 L 359.704 183.32 L 359.704 70.644 Z" fill="#fee701"/>
  <path d="M 736.945 42.904 L 643.619 42.904 C 629.749 44.102 617.933 51.294 616.392 67.048 L 616.392 157.977 C 617.933 173.731 629.749 182.293 643.619 183.32 L 736.945 183.32 C 750.986 182.293 762.802 173.731 764.343 157.977 L 764.343 67.048 C 762.802 51.294 750.986 44.102 736.945 42.904 Z M 720.506 149.415 C 720.335 150.956 719.65 155.237 714.341 155.751 L 666.737 155.751 C 661.428 155.237 660.401 150.956 660.229 149.415 L 660.229 76.124 C 660.401 74.583 661.086 71.158 666.565 70.644 L 714.341 70.644 C 719.65 71.158 720.335 74.583 720.506 76.124 L 720.506 149.415 Z" fill="#fee701"/>
</svg>
